<svg xmlns="http://www.w3.org/2000/svg" xmlns:xlink="http://www.w3.org/1999/xlink" width="1600" zoomAndPan="magnify" viewBox="0 0 1200 449.999984" height="600" preserveAspectRatio="xMidYMid meet" version="1.0"><defs><g/><clipPath id="318abbe2e3"><path d="M 0.878906 6 L 881 6 L 881 391 L 0.878906 391 Z M 0.878906 6 " clip-rule="nonzero"/></clipPath><clipPath id="4f80365565"><rect x="0" width="881" y="0" height="385"/></clipPath><clipPath id="0892a38c00"><path d="M 66.019531 0.597656 L 132.75 0.597656 L 132.75 67.070312 L 66.019531 67.070312 Z M 66.019531 0.597656 " clip-rule="nonzero"/></clipPath><clipPath id="aaa13a22ea"><path d="M 99.367188 0.597656 C 80.949219 0.597656 66.019531 15.480469 66.019531 33.835938 C 66.019531 52.191406 80.949219 67.070312 99.367188 67.070312 C 117.785156 67.070312 132.714844 52.191406 132.714844 33.835938 C 132.714844 15.480469 117.785156 0.597656 99.367188 0.597656 Z M 99.367188 0.597656 " clip-rule="nonzero"/></clipPath><clipPath id="0373839d9b"><path d="M 0.0195312 0.597656 L 66.75 0.597656 L 66.75 67.070312 L 0.0195312 67.070312 Z M 0.0195312 0.597656 " clip-rule="nonzero"/></clipPath><clipPath id="237d91ef6d"><path d="M 33.367188 0.597656 C 14.949219 0.597656 0.0195312 15.480469 0.0195312 33.835938 C 0.0195312 52.191406 14.949219 67.070312 33.367188 67.070312 C 51.785156 67.070312 66.714844 52.191406 66.714844 33.835938 C 66.714844 15.480469 51.785156 0.597656 33.367188 0.597656 Z M 33.367188 0.597656 " clip-rule="nonzero"/></clipPath><clipPath id="744498528e"><rect x="0" width="67" y="0" height="68"/></clipPath><clipPath id="7513a7dfbd"><path d="M 868 6 L 1172.078125 6 L 1172.078125 391.71875 L 868 391.71875 Z M 868 6 " clip-rule="nonzero"/></clipPath><clipPath id="7e1905ce6b"><rect x="0" width="305" y="0" height="386"/></clipPath><clipPath id="5f365d105d"><rect x="0" width="1173" y="0" height="392"/></clipPath></defs><g transform="matrix(1, 0, 0, 1, 8, 29)"><g clip-path="url(#5f365d105d)"><g clip-path="url(#318abbe2e3)"><g transform="matrix(1, 0, 0, 1, -0.000000000000001776, 6)"><g clip-path="url(#4f80365565)"><g fill="#000000" fill-opacity="1"><g transform="translate(2.469072, 299.945418)"><g><path d="M 72 -179.375 L 1.265625 -179.375 L 1.265625 -221.0625 L 193.90625 -221.0625 L 193.90625 -179.375 L 123.171875 -179.375 L 123.171875 0 L 72 0 Z M 72 -179.375 "/></g></g></g><g fill="#000000" fill-opacity="1"><g transform="translate(186.570516, 299.945418)"><g><path d="M 171.796875 -47.375 L 69.15625 -47.375 L 49.578125 0 L -2.84375 0 L 95.6875 -221.0625 L 146.21875 -221.0625 L 245.078125 0 L 191.375 0 Z M 155.703125 -86.21875 L 120.640625 -170.859375 L 85.578125 -86.21875 Z M 155.703125 -86.21875 "/></g></g></g><g fill="#000000" fill-opacity="1"><g transform="translate(428.461805, 299.945418)"><g><path d="M 98.84375 3.796875 C 81.375 3.796875 64.476562 1.425781 48.15625 -3.3125 C 31.84375 -8.050781 18.738281 -14.210938 8.84375 -21.796875 L 26.21875 -60.3125 C 35.6875 -53.363281 46.945312 -47.785156 60 -43.578125 C 73.050781 -39.367188 86.109375 -37.265625 99.171875 -37.265625 C 113.691406 -37.265625 124.425781 -39.421875 131.375 -43.734375 C 138.320312 -48.054688 141.796875 -53.796875 141.796875 -60.953125 C 141.796875 -66.210938 139.742188 -70.578125 135.640625 -74.046875 C 131.535156 -77.523438 126.269531 -80.316406 119.84375 -82.421875 C 113.425781 -84.523438 104.742188 -86.84375 93.796875 -89.375 C 76.953125 -93.375 63.160156 -97.375 52.421875 -101.375 C 41.679688 -105.375 32.46875 -111.796875 24.78125 -120.640625 C 17.101562 -129.484375 13.265625 -141.273438 13.265625 -156.015625 C 13.265625 -168.859375 16.738281 -180.488281 23.6875 -190.90625 C 30.632812 -201.332031 41.109375 -209.597656 55.109375 -215.703125 C 69.109375 -221.804688 86.210938 -224.859375 106.421875 -224.859375 C 120.535156 -224.859375 134.328125 -223.171875 147.796875 -219.796875 C 161.273438 -216.429688 173.066406 -211.59375 183.171875 -205.28125 L 167.375 -166.4375 C 146.957031 -178.007812 126.535156 -183.796875 106.109375 -183.796875 C 91.796875 -183.796875 81.21875 -181.476562 74.375 -176.84375 C 67.53125 -172.21875 64.109375 -166.113281 64.109375 -158.53125 C 64.109375 -150.957031 68.054688 -145.328125 75.953125 -141.640625 C 83.847656 -137.953125 95.898438 -134.320312 112.109375 -130.75 C 128.953125 -126.75 142.742188 -122.75 153.484375 -118.75 C 164.222656 -114.75 173.429688 -108.429688 181.109375 -99.796875 C 188.796875 -91.160156 192.640625 -79.472656 192.640625 -64.734375 C 192.640625 -52.109375 189.113281 -40.582031 182.0625 -30.15625 C 175.007812 -19.738281 164.429688 -11.472656 150.328125 -5.359375 C 136.222656 0.742188 119.0625 3.796875 98.84375 3.796875 Z M 98.84375 3.796875 "/></g></g></g><g fill="#000000" fill-opacity="1"><g transform="translate(629.932617, 299.945418)"><g><path d="M 106.75 -86.84375 L 77.0625 -55.90625 L 77.0625 0 L 26.21875 0 L 26.21875 -221.0625 L 77.0625 -221.0625 L 77.0625 -117.796875 L 174.953125 -221.0625 L 231.8125 -221.0625 L 140.21875 -122.53125 L 237.171875 0 L 177.484375 0 Z M 106.75 -86.84375 "/></g></g></g></g></g></g><g clip-path="url(#0892a38c00)"><g clip-path="url(#aaa13a22ea)"><g transform="matrix(1, 0, 0, 1, 66, -0.000000000000007105)"><g clip-path="url(#744498528e)"><g clip-path="url(#0373839d9b)"><g clip-path="url(#237d91ef6d)"><path fill="#10b981" d="M 0.0195312 0.597656 L 66.75 0.597656 L 66.75 67.070312 L 0.0195312 67.070312 Z M 0.0195312 0.597656 " fill-opacity="1" fill-rule="nonzero"/></g></g></g></g></g></g><g clip-path="url(#7513a7dfbd)"><g transform="matrix(1, 0, 0, 1, 868, 6)"><g clip-path="url(#7e1905ce6b)"><g fill="#10b981" fill-opacity="1"><g transform="translate(0.335905, 304.427042)"><g><path d="M 26.203125 -221 L 77.34375 -221 L 77.34375 0 L 26.203125 0 Z M 26.203125 -221 "/></g></g></g><g fill="#10b981" fill-opacity="1"><g transform="translate(103.880541, 304.427042)"><g><path d="M 71.984375 -179.3125 L 1.265625 -179.3125 L 1.265625 -221 L 193.84375 -221 L 193.84375 -179.3125 L 123.125 -179.3125 L 123.125 0 L 71.984375 0 Z M 71.984375 -179.3125 "/></g></g></g></g></g></g></g></g></svg>