<svg xmlns="http://www.w3.org/2000/svg" xmlns:xlink="http://www.w3.org/1999/xlink" width="1700" zoomAndPan="magnify" viewBox="0 0 1275 449.999984" height="600" preserveAspectRatio="xMidYMid meet" version="1.0"><defs><g/><clipPath id="8627fb5827"><path d="M 80.765625 30.824219 L 147.496094 30.824219 L 147.496094 97.296875 L 80.765625 97.296875 Z M 80.765625 30.824219 " clip-rule="nonzero"/></clipPath><clipPath id="c714bf9540"><path d="M 114.113281 30.824219 C 95.695312 30.824219 80.765625 45.703125 80.765625 64.058594 C 80.765625 82.414062 95.695312 97.296875 114.113281 97.296875 C 132.53125 97.296875 147.460938 82.414062 147.460938 64.058594 C 147.460938 45.703125 132.53125 30.824219 114.113281 30.824219 Z M 114.113281 30.824219 " clip-rule="nonzero"/></clipPath><clipPath id="2cb838d780"><path d="M 0.765625 0.824219 L 67.496094 0.824219 L 67.496094 67.296875 L 0.765625 67.296875 Z M 0.765625 0.824219 " clip-rule="nonzero"/></clipPath><clipPath id="492b4674bb"><path d="M 34.113281 0.824219 C 15.695312 0.824219 0.765625 15.703125 0.765625 34.058594 C 0.765625 52.414062 15.695312 67.296875 34.113281 67.296875 C 52.53125 67.296875 67.460938 52.414062 67.460938 34.058594 C 67.460938 15.703125 52.53125 0.824219 34.113281 0.824219 Z M 34.113281 0.824219 " clip-rule="nonzero"/></clipPath><clipPath id="3223417bcc"><rect x="0" width="68" y="0" height="68"/></clipPath><clipPath id="9c53e45356"><rect x="0" width="375" y="0" height="386"/></clipPath></defs><g fill="#ffffff" fill-opacity="1"><g transform="translate(17.135467, 342.764213)"><g><path d="M 72.015625 -179.40625 L 1.265625 -179.40625 L 1.265625 -221.09375 L 193.9375 -221.09375 L 193.9375 -179.40625 L 123.1875 -179.40625 L 123.1875 0 L 72.015625 0 Z M 72.015625 -179.40625 "/></g></g></g><g fill="#ffffff" fill-opacity="1"><g transform="translate(201.282916, 342.764213)"><g><path d="M 171.828125 -47.375 L 69.171875 -47.375 L 49.59375 0 L -2.84375 0 L 95.703125 -221.09375 L 146.25 -221.09375 L 245.109375 0 L 191.40625 0 Z M 155.71875 -86.234375 L 120.65625 -170.875 L 85.59375 -86.234375 Z M 155.71875 -86.234375 "/></g></g></g><g fill="#ffffff" fill-opacity="1"><g transform="translate(443.233107, 342.764213)"><g><path d="M 98.859375 3.796875 C 81.378906 3.796875 64.476562 1.425781 48.15625 -3.3125 C 31.84375 -8.050781 18.738281 -14.210938 8.84375 -21.796875 L 26.21875 -60.328125 C 35.695312 -53.378906 46.960938 -47.796875 60.015625 -43.578125 C 73.066406 -39.367188 86.125 -37.265625 99.1875 -37.265625 C 113.707031 -37.265625 124.441406 -39.421875 131.390625 -43.734375 C 138.347656 -48.054688 141.828125 -53.796875 141.828125 -60.953125 C 141.828125 -66.222656 139.769531 -70.59375 135.65625 -74.0625 C 131.550781 -77.539062 126.285156 -80.332031 119.859375 -82.4375 C 113.441406 -84.539062 104.757812 -86.859375 93.8125 -89.390625 C 76.96875 -93.390625 63.175781 -97.390625 52.4375 -101.390625 C 41.695312 -105.390625 32.484375 -111.8125 24.796875 -120.65625 C 17.109375 -129.5 13.265625 -141.289062 13.265625 -156.03125 C 13.265625 -168.875 16.738281 -180.507812 23.6875 -190.9375 C 30.632812 -201.363281 41.109375 -209.628906 55.109375 -215.734375 C 69.117188 -221.835938 86.226562 -224.890625 106.4375 -224.890625 C 120.550781 -224.890625 134.34375 -223.203125 147.8125 -219.828125 C 161.289062 -216.460938 173.085938 -211.625 183.203125 -205.3125 L 167.40625 -166.453125 C 146.976562 -178.035156 126.550781 -183.828125 106.125 -183.828125 C 91.8125 -183.828125 81.234375 -181.507812 74.390625 -176.875 C 67.546875 -172.25 64.125 -166.144531 64.125 -158.5625 C 64.125 -150.976562 68.070312 -145.34375 75.96875 -141.65625 C 83.863281 -137.976562 95.914062 -134.347656 112.125 -130.765625 C 128.976562 -126.765625 142.769531 -122.765625 153.5 -118.765625 C 164.238281 -114.765625 173.453125 -108.445312 181.140625 -99.8125 C 188.828125 -91.175781 192.671875 -79.488281 192.671875 -64.75 C 192.671875 -52.113281 189.144531 -40.582031 182.09375 -30.15625 C 175.039062 -19.738281 164.457031 -11.472656 150.34375 -5.359375 C 136.238281 0.742188 119.078125 3.796875 98.859375 3.796875 Z M 98.859375 3.796875 "/></g></g></g><g fill="#ffffff" fill-opacity="1"><g transform="translate(644.753021, 342.764213)"><g><path d="M 106.765625 -86.859375 L 77.0625 -55.90625 L 77.0625 0 L 26.21875 0 L 26.21875 -221.09375 L 77.0625 -221.09375 L 77.0625 -117.8125 L 174.984375 -221.09375 L 231.84375 -221.09375 L 140.234375 -122.546875 L 237.203125 0 L 177.515625 0 Z M 106.765625 -86.859375 "/></g></g></g><g clip-path="url(#8627fb5827)"><g clip-path="url(#c714bf9540)"><g transform="matrix(1, 0, 0, 1, 80, 30)"><g clip-path="url(#3223417bcc)"><g clip-path="url(#2cb838d780)"><g clip-path="url(#492b4674bb)"><path fill="#9752da" d="M 0.765625 0.824219 L 67.496094 0.824219 L 67.496094 67.296875 L 0.765625 67.296875 Z M 0.765625 0.824219 " fill-opacity="1" fill-rule="nonzero"/></g></g></g></g></g></g><g transform="matrix(1, 0, 0, 1, 882, 36)"><g clip-path="url(#9c53e45356)"><g fill="#10b981" fill-opacity="1"><g transform="translate(2.586888, 304.650762)"><g><path d="M 26.203125 -221 L 77.34375 -221 L 77.34375 0 L 26.203125 0 Z M 26.203125 -221 "/></g></g></g><g fill="#10b981" fill-opacity="1"><g transform="translate(106.131508, 304.650762)"><g><path d="M 133.234375 3.78125 C 110.285156 3.78125 89.601562 -1.160156 71.1875 -11.046875 C 52.769531 -20.941406 38.351562 -34.570312 27.9375 -51.9375 C 17.519531 -69.300781 12.3125 -88.820312 12.3125 -110.5 C 12.3125 -132.175781 17.519531 -151.695312 27.9375 -169.0625 C 38.351562 -186.425781 52.769531 -200.050781 71.1875 -209.9375 C 89.601562 -219.832031 110.285156 -224.78125 133.234375 -224.78125 C 156.171875 -224.78125 176.796875 -219.832031 195.109375 -209.9375 C 213.421875 -200.050781 227.835938 -186.425781 238.359375 -169.0625 C 248.878906 -151.695312 254.140625 -132.175781 254.140625 -110.5 C 254.140625 -88.820312 248.878906 -69.300781 238.359375 -51.9375 C 227.835938 -34.570312 213.421875 -20.941406 195.109375 -11.046875 C 176.796875 -1.160156 156.171875 3.78125 133.234375 3.78125 Z M 133.234375 -39.78125 C 146.273438 -39.78125 158.054688 -42.78125 168.578125 -48.78125 C 179.109375 -54.78125 187.367188 -63.144531 193.359375 -73.875 C 199.359375 -84.601562 202.359375 -96.8125 202.359375 -110.5 C 202.359375 -124.175781 199.359375 -136.378906 193.359375 -147.109375 C 187.367188 -157.847656 179.109375 -166.21875 168.578125 -172.21875 C 158.054688 -178.21875 146.273438 -181.21875 133.234375 -181.21875 C 120.179688 -181.21875 108.390625 -178.21875 97.859375 -172.21875 C 87.335938 -166.21875 79.078125 -157.847656 73.078125 -147.109375 C 67.085938 -136.378906 64.09375 -124.175781 64.09375 -110.5 C 64.09375 -96.8125 67.085938 -84.601562 73.078125 -73.875 C 79.078125 -63.144531 87.335938 -54.78125 97.859375 -48.78125 C 108.390625 -42.78125 120.179688 -39.78125 133.234375 -39.78125 Z M 133.234375 -39.78125 "/></g></g></g></g></g></svg>