<svg xmlns="http://www.w3.org/2000/svg" xmlns:xlink="http://www.w3.org/1999/xlink" width="1600" zoomAndPan="magnify" viewBox="0 0 1200 449.999984" height="600" preserveAspectRatio="xMidYMid meet" version="1.0"><defs><g/><clipPath id="362ef363c8"><path d="M 0.601562 6 L 872 6 L 872 392.199219 L 0.601562 392.199219 Z M 0.601562 6 " clip-rule="nonzero"/></clipPath><clipPath id="66dfba82c8"><rect x="0" width="872" y="0" height="387"/></clipPath><clipPath id="8523e8dfe6"><path d="M 65.019531 0.597656 L 131.75 0.597656 L 131.75 67.070312 L 65.019531 67.070312 Z M 65.019531 0.597656 " clip-rule="nonzero"/></clipPath><clipPath id="5e4dea3bc3"><path d="M 98.367188 0.597656 C 79.949219 0.597656 65.019531 15.480469 65.019531 33.835938 C 65.019531 52.191406 79.949219 67.070312 98.367188 67.070312 C 116.785156 67.070312 131.714844 52.191406 131.714844 33.835938 C 131.714844 15.480469 116.785156 0.597656 98.367188 0.597656 Z M 98.367188 0.597656 " clip-rule="nonzero"/></clipPath><clipPath id="8f77167f64"><path d="M 0.0195312 0.597656 L 66.75 0.597656 L 66.75 67.070312 L 0.0195312 67.070312 Z M 0.0195312 0.597656 " clip-rule="nonzero"/></clipPath><clipPath id="2771f629c8"><path d="M 33.367188 0.597656 C 14.949219 0.597656 0.0195312 15.480469 0.0195312 33.835938 C 0.0195312 52.191406 14.949219 67.070312 33.367188 67.070312 C 51.785156 67.070312 66.714844 52.191406 66.714844 33.835938 C 66.714844 15.480469 51.785156 0.597656 33.367188 0.597656 Z M 33.367188 0.597656 " clip-rule="nonzero"/></clipPath><clipPath id="a4aa33ae76"><rect x="0" width="67" y="0" height="68"/></clipPath><clipPath id="00e39f3f91"><path d="M 867 6 L 1171.078125 6 L 1171.078125 392 L 867 392 Z M 867 6 " clip-rule="nonzero"/></clipPath><clipPath id="99d0d13fb6"><rect x="0" width="305" y="0" height="386"/></clipPath><clipPath id="c0ad224a52"><rect x="0" width="1172" y="0" height="393"/></clipPath></defs><g transform="matrix(1, 0, 0, 1, 9, 29)"><g clip-path="url(#c0ad224a52)"><g clip-path="url(#362ef363c8)"><g transform="matrix(1, 0, 0, 1, -0.000000000000001776, 6)"><g clip-path="url(#66dfba82c8)"><g fill="#ffffff" fill-opacity="1"><g transform="translate(1.388755, 306.540462)"><g><path d="M 72.015625 -179.40625 L 1.265625 -179.40625 L 1.265625 -221.09375 L 193.9375 -221.09375 L 193.9375 -179.40625 L 123.1875 -179.40625 L 123.1875 0 L 72.015625 0 Z M 72.015625 -179.40625 "/></g></g></g><g fill="#ffffff" fill-opacity="1"><g transform="translate(185.536215, 306.540462)"><g><path d="M 171.828125 -47.375 L 69.171875 -47.375 L 49.59375 0 L -2.84375 0 L 95.703125 -221.09375 L 146.25 -221.09375 L 245.109375 0 L 191.40625 0 Z M 155.71875 -86.234375 L 120.65625 -170.875 L 85.59375 -86.234375 Z M 155.71875 -86.234375 "/></g></g></g><g fill="#ffffff" fill-opacity="1"><g transform="translate(427.486422, 306.540462)"><g><path d="M 98.859375 3.796875 C 81.378906 3.796875 64.476562 1.425781 48.15625 -3.3125 C 31.84375 -8.050781 18.738281 -14.210938 8.84375 -21.796875 L 26.21875 -60.328125 C 35.695312 -53.378906 46.960938 -47.796875 60.015625 -43.578125 C 73.066406 -39.367188 86.125 -37.265625 99.1875 -37.265625 C 113.707031 -37.265625 124.441406 -39.421875 131.390625 -43.734375 C 138.347656 -48.054688 141.828125 -53.796875 141.828125 -60.953125 C 141.828125 -66.222656 139.769531 -70.59375 135.65625 -74.0625 C 131.550781 -77.539062 126.285156 -80.332031 119.859375 -82.4375 C 113.441406 -84.539062 104.757812 -86.859375 93.8125 -89.390625 C 76.96875 -93.390625 63.175781 -97.390625 52.4375 -101.390625 C 41.695312 -105.390625 32.484375 -111.8125 24.796875 -120.65625 C 17.109375 -129.5 13.265625 -141.289062 13.265625 -156.03125 C 13.265625 -168.875 16.738281 -180.507812 23.6875 -190.9375 C 30.632812 -201.363281 41.109375 -209.628906 55.109375 -215.734375 C 69.117188 -221.835938 86.226562 -224.890625 106.4375 -224.890625 C 120.550781 -224.890625 134.34375 -223.203125 147.8125 -219.828125 C 161.289062 -216.460938 173.085938 -211.625 183.203125 -205.3125 L 167.40625 -166.453125 C 146.976562 -178.035156 126.550781 -183.828125 106.125 -183.828125 C 91.8125 -183.828125 81.234375 -181.507812 74.390625 -176.875 C 67.546875 -172.25 64.125 -166.144531 64.125 -158.5625 C 64.125 -150.976562 68.070312 -145.34375 75.96875 -141.65625 C 83.863281 -137.976562 95.914062 -134.347656 112.125 -130.765625 C 128.976562 -126.765625 142.769531 -122.765625 153.5 -118.765625 C 164.238281 -114.765625 173.453125 -108.445312 181.140625 -99.8125 C 188.828125 -91.175781 192.671875 -79.488281 192.671875 -64.75 C 192.671875 -52.113281 189.144531 -40.582031 182.09375 -30.15625 C 175.039062 -19.738281 164.457031 -11.472656 150.34375 -5.359375 C 136.238281 0.742188 119.078125 3.796875 98.859375 3.796875 Z M 98.859375 3.796875 "/></g></g></g><g fill="#ffffff" fill-opacity="1"><g transform="translate(629.006349, 306.540462)"><g><path d="M 106.765625 -86.859375 L 77.0625 -55.90625 L 77.0625 0 L 26.21875 0 L 26.21875 -221.09375 L 77.0625 -221.09375 L 77.0625 -117.8125 L 174.984375 -221.09375 L 231.84375 -221.09375 L 140.234375 -122.546875 L 237.203125 0 L 177.515625 0 Z M 106.765625 -86.859375 "/></g></g></g></g></g></g><g clip-path="url(#8523e8dfe6)"><g clip-path="url(#5e4dea3bc3)"><g transform="matrix(1, 0, 0, 1, 65, -0.000000000000007105)"><g clip-path="url(#a4aa33ae76)"><g clip-path="url(#8f77167f64)"><g clip-path="url(#2771f629c8)"><path fill="#10b981" d="M 0.0195312 0.597656 L 66.75 0.597656 L 66.75 67.070312 L 0.0195312 67.070312 Z M 0.0195312 0.597656 " fill-opacity="1" fill-rule="nonzero"/></g></g></g></g></g></g><g clip-path="url(#00e39f3f91)"><g transform="matrix(1, 0, 0, 1, 867, 6)"><g clip-path="url(#99d0d13fb6)"><g fill="#10b981" fill-opacity="1"><g transform="translate(0.335905, 304.427042)"><g><path d="M 26.203125 -221 L 77.34375 -221 L 77.34375 0 L 26.203125 0 Z M 26.203125 -221 "/></g></g></g><g fill="#10b981" fill-opacity="1"><g transform="translate(103.880541, 304.427042)"><g><path d="M 71.984375 -179.3125 L 1.265625 -179.3125 L 1.265625 -221 L 193.84375 -221 L 193.84375 -179.3125 L 123.125 -179.3125 L 123.125 0 L 71.984375 0 Z M 71.984375 -179.3125 "/></g></g></g></g></g></g></g></g></svg>