<svg xmlns="http://www.w3.org/2000/svg" xmlns:xlink="http://www.w3.org/1999/xlink" width="1600" zoomAndPan="magnify" viewBox="0 0 375 374.99999" height="600" preserveAspectRatio="xMidYMid meet" version="1.0"><defs><g/><clipPath id="a26cb73f21"><path d="M 0.878906 6 L 367 6 L 367 346 L 0.878906 346 Z M 0.878906 6 " clip-rule="nonzero"/></clipPath><clipPath id="69f915460b"><path d="M 183 78 L 367 78 L 367 300 L 183 300 Z M 183 78 " clip-rule="nonzero"/></clipPath><clipPath id="3dbff7feb8"><rect x="0" width="367" y="0" height="340"/></clipPath><clipPath id="feed0a36ab"><path d="M 66.019531 0.597656 L 132.75 0.597656 L 132.75 67.070312 L 66.019531 67.070312 Z M 66.019531 0.597656 " clip-rule="nonzero"/></clipPath><clipPath id="c5363becfe"><path d="M 99.367188 0.597656 C 80.949219 0.597656 66.019531 15.480469 66.019531 33.835938 C 66.019531 52.191406 80.949219 67.070312 99.367188 67.070312 C 117.785156 67.070312 132.714844 52.191406 132.714844 33.835938 C 132.714844 15.480469 117.785156 0.597656 99.367188 0.597656 Z M 99.367188 0.597656 " clip-rule="nonzero"/></clipPath><clipPath id="9ce94e5b51"><path d="M 0.0195312 0.597656 L 66.75 0.597656 L 66.75 67.070312 L 0.0195312 67.070312 Z M 0.0195312 0.597656 " clip-rule="nonzero"/></clipPath><clipPath id="07180bab7b"><path d="M 33.367188 0.597656 C 14.949219 0.597656 0.0195312 15.480469 0.0195312 33.835938 C 0.0195312 52.191406 14.949219 67.070312 33.367188 67.070312 C 51.785156 67.070312 66.714844 52.191406 66.714844 33.835938 C 66.714844 15.480469 51.785156 0.597656 33.367188 0.597656 Z M 33.367188 0.597656 " clip-rule="nonzero"/></clipPath><clipPath id="0551375f82"><rect x="0" width="67" y="0" height="68"/></clipPath><clipPath id="1fc9e0718f"><rect x="0" width="367" y="0" height="346"/></clipPath></defs><g transform="matrix(1, 0, 0, 1, 8, 29)"><g clip-path="url(#1fc9e0718f)"><g clip-path="url(#a26cb73f21)"><g transform="matrix(1, 0, 0, 1, -0.000000000000001776, 6)"><g clip-path="url(#3dbff7feb8)"><g fill="#000000" fill-opacity="1"><g transform="translate(2.469055, 299.945421)"><g><path d="M 72 -179.375 L 1.265625 -179.375 L 1.265625 -221.0625 L 193.90625 -221.0625 L 193.90625 -179.375 L 123.171875 -179.375 L 123.171875 0 L 72 0 Z M 72 -179.375 "/></g></g></g><g clip-path="url(#69f915460b)"><g fill="#000000" fill-opacity="1"><g transform="translate(186.570501, 299.945421)"><g><path d="M 171.796875 -47.375 L 69.15625 -47.375 L 49.578125 0 L -2.84375 0 L 95.6875 -221.0625 L 146.21875 -221.0625 L 245.078125 0 L 191.375 0 Z M 155.703125 -86.21875 L 120.640625 -170.859375 L 85.578125 -86.21875 Z M 155.703125 -86.21875 "/></g></g></g></g></g></g></g><g clip-path="url(#feed0a36ab)"><g clip-path="url(#c5363becfe)"><g transform="matrix(1, 0, 0, 1, 66, 0)"><g clip-path="url(#0551375f82)"><g clip-path="url(#9ce94e5b51)"><g clip-path="url(#07180bab7b)"><path fill="#10b981" d="M 0.0195312 0.597656 L 66.75 0.597656 L 66.75 67.070312 L 0.0195312 67.070312 Z M 0.0195312 0.597656 " fill-opacity="1" fill-rule="nonzero"/></g></g></g></g></g></g></g></g></svg>