<svg xmlns="http://www.w3.org/2000/svg" xmlns:xlink="http://www.w3.org/1999/xlink" width="1600" zoomAndPan="magnify" viewBox="0 0 375 374.99999" height="600" preserveAspectRatio="xMidYMid meet" version="1.0"><defs><g/><clipPath id="b476700376"><path d="M 0.601562 6 L 366 6 L 366 346 L 0.601562 346 Z M 0.601562 6 " clip-rule="nonzero"/></clipPath><clipPath id="c125ed0823"><path d="M 182 85 L 366 85 L 366 307 L 182 307 Z M 182 85 " clip-rule="nonzero"/></clipPath><clipPath id="2dcb4308a4"><rect x="0" width="366" y="0" height="340"/></clipPath><clipPath id="0c6d1adb9b"><path d="M 65.019531 0.597656 L 131.75 0.597656 L 131.75 67.070312 L 65.019531 67.070312 Z M 65.019531 0.597656 " clip-rule="nonzero"/></clipPath><clipPath id="9a5a733824"><path d="M 98.367188 0.597656 C 79.949219 0.597656 65.019531 15.480469 65.019531 33.835938 C 65.019531 52.191406 79.949219 67.070312 98.367188 67.070312 C 116.785156 67.070312 131.714844 52.191406 131.714844 33.835938 C 131.714844 15.480469 116.785156 0.597656 98.367188 0.597656 Z M 98.367188 0.597656 " clip-rule="nonzero"/></clipPath><clipPath id="836b17531d"><path d="M 0.0195312 0.597656 L 66.75 0.597656 L 66.75 67.070312 L 0.0195312 67.070312 Z M 0.0195312 0.597656 " clip-rule="nonzero"/></clipPath><clipPath id="471f77cf49"><path d="M 33.367188 0.597656 C 14.949219 0.597656 0.0195312 15.480469 0.0195312 33.835938 C 0.0195312 52.191406 14.949219 67.070312 33.367188 67.070312 C 51.785156 67.070312 66.714844 52.191406 66.714844 33.835938 C 66.714844 15.480469 51.785156 0.597656 33.367188 0.597656 Z M 33.367188 0.597656 " clip-rule="nonzero"/></clipPath><clipPath id="0ce0b02cd2"><rect x="0" width="67" y="0" height="68"/></clipPath><clipPath id="d0c233e68c"><rect x="0" width="366" y="0" height="346"/></clipPath></defs><g transform="matrix(1, 0, 0, 1, 9, 29)"><g clip-path="url(#d0c233e68c)"><g clip-path="url(#b476700376)"><g transform="matrix(1, 0, 0, 1, 0, 6)"><g clip-path="url(#2dcb4308a4)"><g fill="#ffffff" fill-opacity="1"><g transform="translate(1.388739, 306.540491)"><g><path d="M 72.015625 -179.40625 L 1.265625 -179.40625 L 1.265625 -221.09375 L 193.9375 -221.09375 L 193.9375 -179.40625 L 123.1875 -179.40625 L 123.1875 0 L 72.015625 0 Z M 72.015625 -179.40625 "/></g></g></g><g clip-path="url(#c125ed0823)"><g fill="#ffffff" fill-opacity="1"><g transform="translate(185.5362, 306.540491)"><g><path d="M 171.828125 -47.375 L 69.171875 -47.375 L 49.59375 0 L -2.84375 0 L 95.703125 -221.09375 L 146.25 -221.09375 L 245.109375 0 L 191.40625 0 Z M 155.71875 -86.234375 L 120.65625 -170.875 L 85.59375 -86.234375 Z M 155.71875 -86.234375 "/></g></g></g></g></g></g></g><g clip-path="url(#0c6d1adb9b)"><g clip-path="url(#9a5a733824)"><g transform="matrix(1, 0, 0, 1, 65, 0)"><g clip-path="url(#0ce0b02cd2)"><g clip-path="url(#836b17531d)"><g clip-path="url(#471f77cf49)"><path fill="#10b981" d="M 0.0195312 0.597656 L 66.75 0.597656 L 66.75 67.070312 L 0.0195312 67.070312 Z M 0.0195312 0.597656 " fill-opacity="1" fill-rule="nonzero"/></g></g></g></g></g></g></g></g></svg>